<svg width="11" height="11" viewBox="0 0 11 11" fill="none" xmlns="http://www.w3.org/2000/svg">
    <path d="M7.375 9H4.09375C3.48828 9 3 8.51172 3 7.90625V2.125H1.59375C1.32031 2.125 1.125 2.33984 1.125 2.59375V9.78125C1.125 10.0547 1.32031 10.25 1.59375 10.25H6.90625C7.16016 10.25 7.375 10.0547 7.375 9.78125V9ZM7.375 2.28125V0.25H4.09375C3.82031 0.25 3.625 0.464844 3.625 0.71875V7.90625C3.625 8.17969 3.82031 8.375 4.09375 8.375H9.40625C9.66016 8.375 9.875 8.17969 9.875 7.90625V2.75H7.84375C7.57031 2.75 7.375 2.55469 7.375 2.28125ZM9.71875 1.67578L8.44922 0.40625C8.35156 0.308594 8.23438 0.25 8.11719 0.25H8V2.125H9.875V2.00781C9.875 1.89062 9.81641 1.77344 9.71875 1.67578Z" fill="#1677ff"/>
</svg>
