<svg width="24" height="24" viewBox="0 0 24 24" fill="none" xmlns="http://www.w3.org/2000/svg">
<path d="M20.747 10.4556L20.7423 10.4368L18.1126 3.75481C17.9954 3.37747 17.6462 3.11731 17.2501 3.11731H6.5907C6.19227 3.11731 5.83836 3.38215 5.72586 3.76418L3.26727 10.3782L3.26023 10.3947L3.25555 10.4134C3.22508 10.5282 3.2157 10.6454 3.23211 10.7603C3.22977 10.7978 3.22742 10.8353 3.22742 10.8728V19.4486C3.22804 19.8263 3.37837 20.1884 3.64548 20.4555C3.91258 20.7226 4.27468 20.8729 4.65242 20.8736H19.3524C20.1376 20.8736 20.7774 20.2337 20.7798 19.4486V10.8728C20.7798 10.8423 20.7798 10.8118 20.7774 10.7861C20.7868 10.6712 20.7774 10.5611 20.747 10.4556ZM13.8141 9.44778L13.8071 9.81575C13.7884 10.8681 13.0618 11.5759 12.0001 11.5759C11.4821 11.5759 11.0368 11.4095 10.7157 11.0931C10.3946 10.7767 10.2188 10.3361 10.2095 9.81575L10.2024 9.44778H5.37898L7.24227 4.91731H16.5985L18.5134 9.44778H13.8141ZM5.02508 11.2478H8.7118C9.28133 12.5861 10.493 13.3759 12.0024 13.3759C12.7923 13.3759 13.5259 13.1556 14.1188 12.7384C14.6391 12.3728 15.0446 11.8618 15.3071 11.2478H18.9751V19.0736H5.02508V11.2478Z" fill="#2E3A59"/>
</svg>
