<svg width="16" height="20" viewBox="0 0 16 20" fill="none" xmlns="http://www.w3.org/2000/svg">
<path d="M14 20H2C0.89543 20 0 19.1046 0 18V1.99999C0 0.895417 0.89543 -1.35361e-05 2 -1.35361e-05H9C9.00896 -0.0011755 9.01804 -0.0011755 9.027 -1.35361e-05H9.033C9.04244 0.00294452 9.05216 0.00495445 9.062 0.00598646C9.15019 0.0116397 9.23726 0.0287846 9.321 0.0569865H9.336H9.351H9.363C9.38145 0.0699122 9.39884 0.0842913 9.415 0.0999865C9.52394 0.14841 9.62321 0.216171 9.708 0.299986L15.708 6.29999C15.7918 6.38477 15.8596 6.48404 15.908 6.59299C15.917 6.61499 15.924 6.63599 15.931 6.65899L15.941 6.68699C15.9689 6.77038 15.9854 6.85717 15.99 6.94499C15.9909 6.95495 15.9932 6.96472 15.997 6.97399V6.97999C15.9986 6.98654 15.9996 6.99324 16 6.99999V18C16 18.5304 15.7893 19.0391 15.4142 19.4142C15.0391 19.7893 14.5304 20 14 20ZM11.542 12C11.0982 11.9773 10.6735 12.1828 10.416 12.545C10.1329 13.0093 9.99886 13.5492 10.032 14.092V14.968C10.0038 15.5047 10.1509 16.0361 10.451 16.482C10.728 16.83 11.1559 17.0229 11.6 17C11.8714 17.0029 12.1405 16.9505 12.391 16.846L12.412 16.837C12.642 16.7353 12.8438 16.5791 13 16.382V14.373H11.531V15.115H12.131V16.008L12.055 16.068C11.933 16.1502 11.788 16.1912 11.641 16.185C11.4081 16.2014 11.1857 16.0854 11.066 15.885C10.931 15.5807 10.8716 15.2482 10.893 14.916V14.033C10.8767 13.7161 10.9331 13.3997 11.058 13.108C11.1545 12.9191 11.3532 12.8046 11.565 12.816C11.7251 12.8031 11.8819 12.8664 11.988 12.987C12.1007 13.1784 12.1594 13.3968 12.158 13.619H13C13.003 13.1759 12.8588 12.7443 12.59 12.392C12.3148 12.115 11.9324 11.9719 11.543 12H11.542ZM7.284 13.746L8.543 16.933H9.4V12.067H8.545V15.262L7.282 12.067H6.42V16.933H7.282V13.746H7.284ZM3 12.067V16.933H3.862V15.222H4.437C4.82511 15.2423 5.20251 15.0909 5.469 14.808C5.73086 14.4915 5.86402 14.0881 5.842 13.678C5.86019 13.257 5.72559 12.8436 5.463 12.514C5.21392 12.2169 4.84137 12.0519 4.454 12.067H3ZM9 1.99999V6.99999H14L9 1.99999ZM4.454 14.4H3.862V12.885H4.462C4.6159 12.8875 4.75684 12.9717 4.832 13.106C4.93217 13.2816 4.98005 13.4821 4.97 13.684C4.98212 13.8721 4.9349 14.0592 4.835 14.219C4.74612 14.3391 4.60324 14.407 4.454 14.4Z" fill="#2E3A59"/>
</svg>
