<svg width="16" height="20" viewBox="0 0 16 20" fill="none" xmlns="http://www.w3.org/2000/svg">
<path d="M14 20.0004H2C0.89543 20.0004 0 19.105 0 18.0004V2.00044C0 0.895875 0.89543 0.000444228 2 0.000444228H9C9.00896 -0.000717737 9.01804 -0.000717737 9.027 0.000444228H9.033C9.04244 0.00340229 9.05216 0.00541221 9.062 0.00644423C9.15019 0.0120974 9.23726 0.0292424 9.321 0.0574442H9.336H9.351H9.363C9.38145 0.07037 9.39884 0.0847491 9.415 0.100444C9.52394 0.148868 9.62321 0.216629 9.708 0.300444L15.708 6.30044C15.7918 6.38523 15.8596 6.4845 15.908 6.59344C15.917 6.61544 15.924 6.63644 15.931 6.65944V6.67344V6.68744C15.9589 6.77083 15.9754 6.85763 15.98 6.94544C15.9809 6.95541 15.9832 6.96518 15.987 6.97444V6.98044C15.9921 6.9866 15.9964 6.99331 16 7.00044V18.0004C16 19.105 15.1046 20.0004 14 20.0004ZM2 2.00044V18.0004H14V8.00044H9C8.44772 8.00044 8 7.55273 8 7.00044V2.00044H2ZM10 3.41444V6.00044H12.586L10 3.41444ZM9 16.0004H7V14.0004H5V12.0004H7V10.0004H9V12.0004H11V14.0004H9V16.0004Z" fill="#1890FF"/>
</svg>
