<svg width="24" height="24" viewBox="0 0 24 24" fill="none" xmlns="http://www.w3.org/2000/svg">
<path d="M6.59518 0.540318C6.68764 0.874419 7.18074 2.87903 7.70465 4.98387C8.22857 7.08871 8.75249 9.09332 8.81412 9.39401C8.96822 9.92857 8.69085 9.99539 6.04045 9.99539H3.11268L2.00321 7.99078C0.154093 4.71659 0 5.05069 0 12C0 18.9493 0.154093 19.2834 2.00321 16.0092L3.11268 14.0046H6.04045C8.69085 14.0046 8.96822 14.0714 8.81412 14.5726C8.75249 14.9067 8.22857 16.9113 7.70465 19.0161C7.18074 21.121 6.68764 23.1256 6.59518 23.4597C6.44109 23.9942 6.56437 24.0611 7.42729 23.9608C8.35185 23.8606 8.75249 23.3929 11.6803 18.9493L14.947 14.038H18.8918C22.3743 14.0046 22.8674 13.9378 23.4222 13.3364C24.1926 12.5012 24.1926 11.4988 23.4222 10.6636C22.8674 10.0622 22.3743 9.99539 18.8918 9.96198H14.947L11.6803 5.05069C8.75249 0.607138 8.35185 0.139396 7.42729 0.0391654C6.56437 -0.061065 6.44109 0.00575526 6.59518 0.540318Z" fill="#2E3A59"/>
</svg>
